<?xml version="1.0" standalone="no"?>
<!DOCTYPE svg PUBLIC "-//W3C//DTD SVG 20010904//EN"
 "http://www.w3.org/TR/2001/REC-SVG-20010904/DTD/svg10.dtd">
<svg version="1.0" xmlns="http://www.w3.org/2000/svg"
 width="300.000000pt" height="200.000000pt" viewBox="0 0 300.000000 200.000000"
 preserveAspectRatio="xMidYMid meet">

<g transform="translate(0.000000,200.000000) scale(0.100000,-0.100000)"
fill="#000000" stroke="none">
<path d="M1365 1963 c-11 -2 -56 -11 -100 -19 -249 -47 -493 -176 -687 -363
-184 -176 -300 -363 -383 -613 -74 -227 -129 -576 -94 -599 8 -5 318 -9 701
-9 611 0 688 2 702 16 14 14 16 75 16 522 0 279 -4 513 -8 520 -7 9 -58 12
-223 10 l-214 -3 -3 -102 -3 -103 -84 0 c-46 0 -90 -3 -99 -6 -13 -5 -16 -25
-16 -110 l0 -104 -94 0 c-65 0 -97 -4 -104 -13 -6 -7 -13 -58 -14 -113 l-3
-99 -44 -3 c-69 -5 -73 -1 -54 60 32 108 157 327 239 417 51 58 184 155 263
195 151 76 327 116 512 116 332 0 674 -220 832 -535 25 -51 69 -169 81 -218 6
-27 6 -27 -43 -27 l-50 0 -3 113 -3 112 -102 3 -103 3 0 97 c0 63 -4 102 -12
110 -8 8 -47 12 -110 12 l-98 0 0 93 c0 59 -4 97 -12 105 -17 17 -389 17 -406
0 -17 -17 -17 -1039 0 -1056 14 -14 1344 -17 1367 -3 11 7 13 37 8 157 -6 165
-31 313 -79 464 -163 510 -572 878 -1072 965 -82 14 -348 20 -401 8z m-172
-69 c3 -4 25 -8 49 -11 24 -2 55 -5 69 -7 14 -1 31 -6 37 -10 7 -4 12 -2 12 4
0 8 6 8 20 0 11 -6 25 -8 31 -5 5 4 16 2 24 -5 9 -7 15 -8 20 0 3 5 13 10 21
10 8 0 13 -4 10 -8 -2 -4 32 -9 77 -10 45 -2 109 -7 142 -11 33 -5 75 -8 93
-7 17 1 32 -2 32 -6 0 -4 10 -6 22 -5 12 2 39 1 60 -3 23 -5 38 -3 38 2 0 6
11 3 25 -6 14 -9 25 -12 25 -6 0 5 7 10 15 10 8 0 15 -4 15 -10 0 -5 19 -7 42
-5 33 4 53 -2 97 -27 206 -116 404 -320 521 -533 110 -203 166 -422 186 -727
l6 -108 -618 2 c-487 2 -556 4 -324 8 162 3 291 7 285 8 -5 2 -32 5 -60 7
-124 9 -236 17 -300 20 -131 7 -234 18 -230 25 2 4 -10 7 -27 6 -25 -1 -34 -7
-38 -26 -10 -39 -22 399 -18 690 l3 265 176 3 176 2 7 -31 c3 -17 6 -65 6
-105 l0 -73 108 -3 107 -3 3 -107 3 -108 104 0 105 0 0 -120 0 -120 79 0 c44
0 83 4 86 10 12 19 -36 166 -90 275 -105 213 -252 362 -460 465 -167 83 -247
103 -410 103 -320 0 -588 -110 -787 -322 -116 -124 -249 -365 -272 -494 l-7
-38 96 3 97 3 1 110 2 110 103 3 102 3 0 109 0 110 100 0 100 0 0 105 0 105
190 0 190 0 0 -434 c0 -411 -4 -512 -20 -487 -8 15 -97 18 -530 22 l-355 4
405 5 405 5 0 120 c-1 66 -2 238 -3 383 l-2 263 -87 -3 -88 -3 -3 -87 -3 -88
-89 0 -90 0 0 -120 0 -120 -105 0 -105 0 0 -116 0 -115 -214 3 -214 3 5 30
c52 318 178 578 362 748 160 147 382 254 598 286 91 14 288 14 373 1 203 -32
396 -133 557 -291 150 -147 252 -298 322 -476 22 -56 61 -234 61 -277 l0 -26
-209 0 -208 0 -7 77 c-3 42 -6 93 -6 114 l0 38 -102 3 -103 3 -5 114 -5 114
-87 -2 -88 -2 0 90 0 91 -29 0 c-15 0 -56 3 -90 6 l-61 7 0 -387 0 -386 554 0
c475 0 555 2 566 15 15 18 9 68 -31 260 -33 163 -54 227 -107 333 -144 289
-388 517 -672 629 -156 62 -247 78 -440 78 -155 -1 -187 -4 -281 -27 -405
-101 -733 -379 -888 -752 -42 -102 -91 -297 -99 -396 -3 -47 -8 -77 -10 -67
-2 11 -10 16 -17 13 -8 -3 -15 0 -17 6 -3 8 -10 7 -26 -1 -17 -9 -22 -9 -22 1
0 9 -3 9 -11 -2 -17 -24 -1 101 27 215 36 146 61 218 113 330 158 336 432 584
786 711 96 35 108 38 118 28z m867 -59 c17 -9 30 -18 30 -21 0 -4 -59 23 -69
32 -10 9 13 3 39 -11z m-324 -60 c298 -52 574 -228 764 -485 73 -99 150 -247
179 -346 22 -73 71 -329 71 -370 l0 -24 -530 0 -530 0 0 345 0 345 60 0 59 0
3 -87 3 -88 88 -3 87 -3 0 -102 c0 -67 4 -107 12 -115 8 -8 46 -12 105 -12
l92 0 3 -112 3 -113 239 -3 c172 -2 242 1 247 9 16 27 -22 227 -68 344 -61
160 -156 306 -287 442 -243 254 -510 364 -851 350 -361 -15 -675 -178 -890
-462 -56 -73 -154 -271 -189 -380 -31 -95 -67 -272 -59 -291 4 -12 49 -14 252
-12 l246 3 3 113 3 112 94 0 c115 0 115 0 115 139 l0 101 84 0 c98 0 96 -2 96
106 l0 74 55 0 55 0 0 -350 0 -350 -531 0 -531 0 7 68 c27 269 110 498 251
685 192 256 511 441 829 480 81 10 281 6 361 -8z"/>
<path d="M142 215 c-45 -20 -67 -73 -52 -121 15 -44 45 -64 97 -64 35 0 43 3
43 18 0 15 -6 18 -29 14 -58 -8 -96 72 -53 111 10 10 33 17 50 17 28 0 51 15
40 26 -13 12 -67 12 -96 -1z"/>
<path d="M305 216 c-51 -22 -69 -89 -40 -145 17 -33 33 -41 84 -41 97 0 124
149 35 186 -40 17 -41 17 -79 0z m75 -45 c33 -63 -22 -145 -68 -99 -16 16 -16
90 0 106 18 18 56 14 68 -7z"/>
<path d="M476 189 c-3 -17 -6 -60 -6 -95 0 -57 2 -64 20 -64 18 0 20 7 20 68
1 74 10 69 30 -15 17 -75 41 -72 65 7 10 34 22 63 27 66 4 3 8 -24 8 -60 0
-59 2 -66 20 -66 17 0 20 7 20 43 0 23 -3 66 -6 95 -6 49 -8 52 -35 52 -26 0
-29 -5 -45 -62 -19 -66 -23 -65 -44 20 -10 37 -14 42 -39 42 -24 0 -30 -5 -35
-31z"/>
<path d="M720 147 c0 -94 15 -117 74 -117 63 0 80 23 84 117 4 74 4 75 -19 71
-22 -3 -24 -8 -29 -78 -4 -64 -8 -75 -24 -78 -31 -6 -46 26 -46 95 0 56 -2 63
-20 63 -18 0 -20 -7 -20 -73z"/>
<path d="M920 126 c0 -89 1 -96 20 -96 18 0 20 7 20 68 l1 67 36 -67 c29 -55
40 -68 59 -68 24 0 24 2 24 95 0 88 -1 95 -20 95 -18 0 -20 -7 -20 -62 l-1
-63 -32 60 c-26 48 -37 61 -59 63 l-28 3 0 -95z"/>
<path d="M1120 125 c0 -88 1 -95 20 -95 19 0 20 7 20 95 0 88 -1 95 -20 95
-19 0 -20 -7 -20 -95z"/>
<path d="M1202 128 l3 -93 63 0 c55 0 67 4 83 24 38 47 37 104 -3 141 -17 16
-35 20 -85 20 l-64 0 3 -92z m112 46 c24 -24 20 -80 -6 -98 -46 -33 -58 -22
-58 49 0 62 1 65 24 65 14 0 32 -7 40 -16z"/>
<path d="M1447 213 c-2 -5 -14 -40 -26 -80 -12 -40 -24 -79 -27 -88 -5 -11 1
-15 19 -15 18 0 27 7 31 25 9 36 61 36 70 0 5 -18 13 -25 32 -25 14 0 23 3 21
8 -3 4 -17 46 -31 95 -26 83 -28 87 -56 87 -16 0 -31 -3 -33 -7z m47 -80 c6
-19 3 -23 -13 -23 -22 0 -25 10 -14 49 6 25 14 18 27 -26z"/>
<path d="M1600 124 l0 -96 62 4 c76 6 108 35 108 99 0 62 -33 89 -110 89 l-60
0 0 -96z m108 54 c17 -17 15 -78 -5 -100 -9 -10 -27 -18 -40 -18 -22 0 -23 3
-23 65 0 65 0 65 28 65 15 0 33 -5 40 -12z"/>
<path d="M1881 143 c-13 -43 -26 -86 -28 -95 -9 -30 36 -23 47 7 13 35 57 35
70 0 6 -15 17 -25 30 -25 25 0 25 -5 -7 101 -26 87 -28 89 -58 89 -30 0 -32
-3 -54 -77z m68 -15 c1 -10 -6 -18 -14 -18 -16 0 -20 26 -8 56 6 16 7 16 14
-2 4 -10 8 -27 8 -36z"/>
<path d="M2050 125 c0 -88 2 -95 20 -95 17 0 19 8 22 68 l3 67 35 -65 c29 -53
39 -65 60 -65 25 0 25 1 28 93 3 86 1 92 -17 92 -18 0 -20 -8 -23 -62 l-3 -63
-34 63 c-29 54 -38 62 -62 62 l-29 0 0 -95z"/>
<path d="M2260 124 l0 -96 60 4 c69 5 97 24 106 75 7 39 -11 89 -37 103 -10 6
-43 10 -73 10 l-56 0 0 -96z m104 50 c36 -36 8 -114 -41 -114 -22 0 -23 3 -23
65 0 62 1 65 24 65 14 0 32 -7 40 -16z"/>
<path d="M2460 125 c0 -88 1 -95 20 -95 19 0 20 7 20 95 0 88 -1 95 -20 95
-19 0 -20 -7 -20 -95z"/>
<path d="M2540 126 c0 -89 2 -96 20 -96 17 0 19 8 22 68 l3 67 36 -65 c28 -52
41 -66 62 -68 l27 -3 0 95 c0 89 -2 96 -20 96 -16 0 -19 -8 -22 -62 l-3 -63
-31 60 c-27 52 -36 60 -63 63 l-31 3 0 -95z"/>
<path d="M2764 133 c-14 -48 -28 -91 -31 -95 -2 -5 7 -8 20 -8 18 0 27 7 31
25 5 20 13 25 36 25 23 0 31 -5 36 -25 4 -18 13 -25 30 -25 13 0 24 1 24 3 0
1 -13 42 -29 92 -27 86 -29 90 -59 93 -31 3 -31 3 -58 -85z m70 15 c9 -35 8
-38 -14 -38 -11 0 -20 3 -20 8 0 19 13 52 20 52 4 0 10 -10 14 -22z"/>
</g>
</svg>
